# xmcd CD database file
# Copyright (C) 1993-1998 Ti Kan
#
# Track frame offsets:
#	200
#	14657
#	30367
#	44280
#	61157
#	76567
#	92467
#	111780
#	126205
#	141870
#	162827
#
# Disc length: 2393 seconds
#
# Revision: 1
# Processed by: cddbd v1.4b41PL1 Copyright (c) Steve Scherf et al.
# Submitted via: CDValet v3.31 - Copyright (c) 1997 Greg Leichner
#
DISCID=7d09570b
DTITLE=Robin and Linda Williams - All Broken Hearts Are The Sam
DTITLE=e
DYEAR=1900
DGENRE=
TTITLE0=Rollin' and Ramblin'
TTITLE1=All Broken Hearts Are The Same
TTITLE2=Baby Rocker Her Dolly
TTITLE3=Leaving This Land
TTITLE4=Annie
TTITLE5=Riding On The Santa Fe
TTITLE6=Panhandle Wind
TTITLE7=Pine County
TTITLE8=Stone Wall  Country
TTITLE9=Across The Blue Mountains
TTITLE10=After The Flood
EXTD=1989, Sugar Hill Records\n\nRobin Williams: vocals, guitar
EXTD=, mouth harp\nLinda Williams: vocals, guitar\nStuart Dunca
EXTD=n: fiddle mandolin\nJerry Dougals: dobro\nRay Flacke: elec
EXTD=tric guitar, gut string guitar\nFlip Anderson: piano\nT. M
EXTD=ichael Coleman: bass\nPat McInerney: drums
EXTT0=
EXTT1=
EXTT2=
EXTT3=
EXTT4=
EXTT5=
EXTT6=
EXTT7=
EXTT8=
EXTT9=
EXTT10=
PLAYORDER=
